<svg id="visual" viewBox="0 0 960 540" width="960" height="540" xmlns="http://www.w3.org/2000/svg" xmlns:xlink="http://www.w3.org/1999/xlink" version="1.1"><rect x="0" y="0" width="960" height="540" fill="#6600FF"></rect><defs><linearGradient id="grad1_0" x1="43.8%" y1="100%" x2="100%" y2="0%"><stop offset="14.444444444444446%" stop-color="#fa3ce3" stop-opacity="1"></stop><stop offset="85.55555555555554%" stop-color="#fa3ce3" stop-opacity="1"></stop></linearGradient></defs><defs><linearGradient id="grad1_1" x1="43.8%" y1="100%" x2="100%" y2="0%"><stop offset="14.444444444444446%" stop-color="#fa3ce3" stop-opacity="1"></stop><stop offset="85.55555555555554%" stop-color="#c303f0" stop-opacity="1"></stop></linearGradient></defs><defs><linearGradient id="grad1_2" x1="43.8%" y1="100%" x2="100%" y2="0%"><stop offset="14.444444444444446%" stop-color="#6600ff" stop-opacity="1"></stop><stop offset="85.55555555555554%" stop-color="#c303f0" stop-opacity="1"></stop></linearGradient></defs><defs><linearGradient id="grad2_0" x1="0%" y1="100%" x2="56.3%" y2="0%"><stop offset="14.444444444444446%" stop-color="#fa3ce3" stop-opacity="1"></stop><stop offset="85.55555555555554%" stop-color="#fa3ce3" stop-opacity="1"></stop></linearGradient></defs><defs><linearGradient id="grad2_1" x1="0%" y1="100%" x2="56.3%" y2="0%"><stop offset="14.444444444444446%" stop-color="#c303f0" stop-opacity="1"></stop><stop offset="85.55555555555554%" stop-color="#fa3ce3" stop-opacity="1"></stop></linearGradient></defs><defs><linearGradient id="grad2_2" x1="0%" y1="100%" x2="56.3%" y2="0%"><stop offset="14.444444444444446%" stop-color="#c303f0" stop-opacity="1"></stop><stop offset="85.55555555555554%" stop-color="#6600ff" stop-opacity="1"></stop></linearGradient></defs><g transform="translate(960, 540)"><path d="M-432 0C-405.7 -49.3 -379.5 -98.6 -359.4 -148.9C-339.3 -199.1 -325.4 -250.3 -294.9 -294.9C-264.3 -339.4 -217.2 -377.4 -165.3 -399.1C-113.4 -420.9 -56.7 -426.4 0 -432L0 0Z" fill="#9d00f7"></path><path d="M-288 0C-270.5 -32.9 -253 -65.7 -239.6 -99.2C-226.2 -132.7 -216.9 -166.9 -196.6 -196.6C-176.2 -226.3 -144.8 -251.6 -110.2 -266.1C-75.6 -280.6 -37.8 -284.3 0 -288L0 0Z" fill="#e122e9"></path><path d="M-144 0C-135.2 -16.4 -126.5 -32.9 -119.8 -49.6C-113.1 -66.4 -108.5 -83.4 -98.3 -98.3C-88.1 -113.1 -72.4 -125.8 -55.1 -133C-37.8 -140.3 -18.9 -142.1 0 -144L0 0Z" fill="#fa3ce3"></path></g><g transform="translate(0, 0)"><path d="M432 0C407.8 48.6 383.7 97.2 366.8 151.9C349.9 206.6 340.2 267.4 305.5 305.5C270.7 343.5 210.8 358.7 155.8 376C100.7 393.3 50.3 412.7 0 432L0 0Z" fill="#9d00f7"></path><path d="M288 0C271.9 32.4 255.8 64.8 244.5 101.3C233.3 137.8 226.8 178.3 203.6 203.6C180.5 229 140.6 239.2 103.8 250.7C67.1 262.2 33.6 275.1 0 288L0 0Z" fill="#e122e9"></path><path d="M144 0C135.9 16.2 127.9 32.4 122.3 50.6C116.6 68.9 113.4 89.1 101.8 101.8C90.2 114.5 70.3 119.6 51.9 125.3C33.6 131.1 16.8 137.6 0 144L0 0Z" fill="#fa3ce3"></path></g></svg>